<svg id="Layer_1" data-name="Layer 1" xmlns="http://www.w3.org/2000/svg" viewBox="0 0 234.12 250.97">
  <g>
    <path d="M422.47,397.77c-.21,30.79-11.49,58.27-34.11,80.55-24.21,23.85-53.82,34.82-87.81,33C271,509.7,245.6,498,225,476.94c-23.6-24.23-34.44-53.74-32.48-87.53,1.69-29.08,13.18-54.16,33.95-74.47,24.37-23.83,54-34.81,88.1-32.87,29.44,1.68,54.74,13.38,75.23,34.43C411.42,338.67,422.3,365.55,422.47,397.77Zm-3.91-19.69c-.73-13.89-10.69-37.83-29.4-57.73-22-23.42-49.64-35.31-81.7-35.41-29.33-.1-55.27,10.08-76.66,30.25-23.31,22-35.32,49.44-35.34,81.49,0,30.66,11.08,57.26,32.78,79s48.54,32.8,79.22,32.76c31.6,0,59-11.6,80.85-34.56S420.45,423.36,418.56,378.08Z" transform="translate(-190.1 -260.52)"/>
    <path d="M307.16,260.52c3.61,6.28,7,12.23,10.61,18.42h-21.2Z" transform="translate(-190.1 -260.52)"/>
    <path d="M414.49,446.85l9.73,16.87H404.81C408,458.21,411.17,452.63,414.49,446.85Z" transform="translate(-190.1 -260.52)"/>
    <path d="M190.1,463.73c3.31-5.75,6.5-11.29,9.74-16.9l9.69,16.9Z" transform="translate(-190.1 -260.52)"/>
    <path d="M303.68,411.22c0-4.41,0-8.72,0-13,0-3.24-.92-4.65-3-4.9a4.8,4.8,0,0,0-5.36,4.34c-.36,2.91-.28,5.88-.36,8.83,0,1.59,0,3.17,0,4.93H290.8V390.06h3.92c.1.81.21,1.65.26,2.05,2.17-.91,4.34-2.21,6.67-2.68,2.88-.58,4.77,1.27,6.24,4.82a28,28,0,0,1,2-2.87,6.11,6.11,0,0,1,7-1.68,6,6,0,0,1,4.11,5.91c.06,4.71.13,9.42,0,14.13-.08,3.44-2.66,1.18-4.42,2,0-5.15,0-9.9,0-14.65,0-3.18-2.7-4.88-5.39-3.39a5.89,5.89,0,0,0-3,5.38c-.05,3,0,6.06,0,9.1C308.15,412,308,412.07,303.68,411.22Z" transform="translate(-190.1 -260.52)"/>
    <path d="M232.09,406.91c3.83,0,7.36.25,10.83-.05,8.55-.75,13.78-8.62,10.8-16.24-2-5.09-5.83-8-11.44-8.15-3.34-.08-6.68,0-10.17,0v-4.75c5.22.4,10.42.16,15.28,1.31,7.84,1.87,12.2,9.13,11.53,17.59a16.32,16.32,0,0,1-14.49,14.6,83.82,83.82,0,0,1-11,.29c-.5,0-1.25-.93-1.42-1.55A11,11,0,0,1,232.09,406.91Z" transform="translate(-190.1 -260.52)"/>
    <path d="M385.92,405c1.11.86,2,1.58,2.93,2.3a12,12,0,0,1-14.77,3.88,11.65,11.65,0,0,1-5.78-14,11.28,11.28,0,0,1,13-7.69c5.26.89,9.16,6.1,8.89,12.16H371.91c.43,3,1.81,4.88,4.29,5.88C379.91,409,383,407.85,385.92,405Zm-.62-7.1c-1.23-3.08-3.54-4.6-6.51-4.5a6.06,6.06,0,0,0-6.07,4.5Z" transform="translate(-190.1 -260.52)"/>
    <path d="M284.17,407.24a12.08,12.08,0,0,1-15.1,3.73,11.62,11.62,0,0,1-5.22-14.59,11.31,11.31,0,0,1,13.49-6.75c5.1,1.41,8.81,6.83,8,11.95h-18a6.18,6.18,0,0,0,3.8,5.73c3.83,1.79,7.12.61,10.14-2.29Zm-3.69-9.44a6.17,6.17,0,0,0-6.12-4.46A6.27,6.27,0,0,0,268,397.8Z" transform="translate(-190.1 -260.52)"/>
    <path d="M348.31,401.66h-18a6.21,6.21,0,0,0,3.69,5.58c2.73,1.34,5.66,1.48,7.9-.47s3.63-1.34,5.16.58c-2.54,4.35-9.28,6.15-14.41,3.86a11.6,11.6,0,0,1-6-14.3,11.39,11.39,0,0,1,13.38-7.37A11.06,11.06,0,0,1,348.31,401.66Zm-4.63-3.8c-1.45-3.31-3.74-4.72-6.88-4.47s-5.05,1.81-5.73,4.47Z" transform="translate(-190.1 -260.52)"/>
    <path d="M229.25,403.31a8.9,8.9,0,1,1-.15-17.79,8.9,8.9,0,0,1,.15,17.79Z" transform="translate(-190.1 -260.52)"/>
    <path d="M226.33,384.21a12.55,12.55,0,0,0-2.86,1.66c-1.95,2.07-3.31,1.18-4.84-.52a16.9,16.9,0,0,1-4.1-10.7,22.37,22.37,0,0,0-.27-3.48c-1.71,7.21-1.2,14.07,3.12,20.41a16.16,16.16,0,0,1,1.5,3.82c.63,1.85,1.2,3.71,1.76,5.44-7.16-2.59-12.52-15.4-10.42-25.34,2.48-11.77,13.19-20.42,23.27-19.66a96.89,96.89,0,0,0-9.41,4.1c-4.93,2.72-8.05,6.87-7.57,12.81S220.66,382.17,226.33,384.21Z" transform="translate(-190.1 -260.52)"/>
    <path d="M360,411.36c-.84.09-1.46.13-2.07.22-1.82.24-2.56-.38-2.49-2.36.15-4.14,0-8.3,0-12.45v-2.72l-3.41-.32v-3.67l3.34-.33v-6.1H360v5.56c1.51,1.64,4.52-.95,4.62,2.58.12,3.73-3.06,1.24-4.56,2.66Z" transform="translate(-190.1 -260.52)"/>
    <path d="M396.28,390h4.25c.12,1.18.23,2.23.39,3.8,2.18-3,4.29-5.4,8.05-4.27-.05,3.46-.41,3.9-3.52,4.3-2.73.35-4.63,2.65-4.71,6-.09,3.73,0,7.47,0,11.16-3.72,1.33-4.43.88-4.44-2.67V390Z" transform="translate(-190.1 -260.52)"/>
  </g>
</svg>
